<?xml version="1.0" encoding="utf-8"?>
<!-- Generator: Adobe Illustrator 25.4.1, SVG Export Plug-In . SVG Version: 6.00 Build 0)  -->
<svg version="1.1" id="Layer_1" xmlns="http://www.w3.org/2000/svg" xmlns:xlink="http://www.w3.org/1999/xlink" x="0px" y="0px"
	 viewBox="0 0 792 612" style="enable-background:new 0 0 792 612;" xml:space="preserve">
<style type="text/css">
	.st0{fill:#336667;}
	.st1{fill:#333333;}
	.st2{font-family:'ShowcardGothic-Reg';}
	.st3{font-size:100.8629px;}
</style>
<g>
	<path class="st0" d="M221.91,290.19c0-8.34,3.16-15.14,9.47-20.37c5.25-4.31,11.02-6.45,17.35-6.45c5.11,0,12.63,1.13,22.59,3.43
		l-6.04-126.48c-24.75-5.77-47.08-8.67-66.97-8.67c-35.1,0-63.21,7.26-84.32,21.78c-24.2,16.68-36.31,41.22-36.31,73.62
		c0,31.06,12.79,57.89,38.32,80.49c13.18,11.69,26.36,23.32,39.54,34.89c8.07,8.74,12.1,18.62,12.1,29.66
		c0,15.19-10.02,22.79-30.05,22.79c-5.11,0-15.07-1.82-29.84-5.46c3.35,12.51,5.97,22.53,7.86,30.07
		c2.95,13.97,5.05,24.06,6.25,30.24c10.49,3.11,26.76,4.65,48.81,4.65c23.94,0,44.04-6.93,60.32-20.78
		c17.08-14.38,25.61-32.8,25.61-55.26c0-15.46-5.78-32.4-17.35-50.83C227.68,309.08,221.91,296.64,221.91,290.19z"/>
	<path class="st0" d="M714.32,387.61c-1.34,5.39-3.83,15.53-7.45,30.47c-1.89,8.73-3.5,18.96-4.86,30.65h-68.58v0.29H301.78v-52.14
		h-0.2v52.85c-0.67-31.6-2.35-83.63-5.05-156.11c-1.75-37.12-4.91-88.35-9.47-153.7h139.97l-11.47,256.26h217.87v-0.3
		c13.05,0,32.61-1.4,58.71-4.23C697.52,391.11,704.91,389.78,714.32,387.61z"/>
	<text transform="matrix(1 0 0 1 437.3267 385.9431)" class="st1 st2 st3">BlOG</text>
</g>
</svg>
